<svg width="37" height="26" viewBox="0 0 37 26" fill="none" xmlns="http://www.w3.org/2000/svg">
<path d="M36.2268 4.06812C35.8013 2.46682 34.5476 1.20568 32.9557 0.777698C30.0702 0 18.5 0 18.5 0C18.5 0 6.92984 0 4.04434 0.777698C2.45244 1.20575 1.19868 2.46682 0.773151 4.06812C0 6.97057 0 13.0263 0 13.0263C0 13.0263 0 19.082 0.773151 21.9844C1.19868 23.5857 2.45244 24.7943 4.04434 25.2223C6.92984 26 18.5 26 18.5 26C18.5 26 30.0702 26 32.9557 25.2223C34.5476 24.7943 35.8013 23.5857 36.2268 21.9844C37 19.082 37 13.0263 37 13.0263C37 13.0263 37 6.97057 36.2268 4.06812V4.06812ZM14.7159 18.5244V7.52815L24.3863 13.0264L14.7159 18.5244V18.5244Z" fill="#FDFDFD"/>
</svg>
