<svg width="30" height="29" viewBox="0 0 30 29" fill="none" xmlns="http://www.w3.org/2000/svg">
<path d="M26.7857 0H3.21429C2.3618 0 1.54424 0.327359 0.941442 0.910061C0.338647 1.49276 0 2.28308 0 3.10714L0 25.8929C0 26.7169 0.338647 27.5072 0.941442 28.0899C1.54424 28.6726 2.3618 29 3.21429 29H12.4051V19.1406H8.18638V14.5H12.4051V10.963C12.4051 6.93993 14.8828 4.71768 18.6777 4.71768C20.4951 4.71768 22.3955 5.03098 22.3955 5.03098V8.97964H20.3016C18.2384 8.97964 17.5949 10.2173 17.5949 11.4867V14.5H22.2007L21.4641 19.1406H17.5949V29H26.7857C27.6382 29 28.4558 28.6726 29.0586 28.0899C29.6614 27.5072 30 26.7169 30 25.8929V3.10714C30 2.28308 29.6614 1.49276 29.0586 0.910061C28.4558 0.327359 27.6382 0 26.7857 0V0Z" fill="#FDFDFD"/>
</svg>
