<svg width="38" height="37" viewBox="0 0 38 37" fill="none" xmlns="http://www.w3.org/2000/svg">
<g filter="url(#filter0_d_54_68)">
<path d="M19.0033 7.06477C14.7468 7.06477 11.3134 10.3844 11.3134 14.5C11.3134 18.6156 14.7468 21.9352 19.0033 21.9352C23.2599 21.9352 26.6933 18.6156 26.6933 14.5C26.6933 10.3844 23.2599 7.06477 19.0033 7.06477ZM19.0033 19.3339C16.2527 19.3339 14.0039 17.1661 14.0039 14.5C14.0039 11.8339 16.246 9.66613 19.0033 9.66613C21.7607 9.66613 24.0028 11.8339 24.0028 14.5C24.0028 17.1661 21.754 19.3339 19.0033 19.3339V19.3339ZM28.8015 6.76063C28.8015 7.72481 27.9983 8.49487 27.0078 8.49487C26.0106 8.49487 25.2142 7.71834 25.2142 6.76063C25.2142 5.80291 26.0173 5.02639 27.0078 5.02639C27.9983 5.02639 28.8015 5.80291 28.8015 6.76063ZM33.8946 8.52075C33.7808 6.19765 33.232 4.13985 31.4718 2.44444C29.7184 0.749024 27.5901 0.218398 25.1874 0.101919C22.7111 -0.033973 15.2889 -0.033973 12.8126 0.101919C10.4166 0.211927 8.28834 0.742553 6.52817 2.43797C4.76799 4.13338 4.22588 6.19117 4.10541 8.51428C3.96486 10.9086 3.96486 18.085 4.10541 20.4792C4.21919 22.8024 4.76799 24.8601 6.52817 26.5556C8.28834 28.251 10.4099 28.7816 12.8126 28.8981C15.2889 29.034 22.7111 29.034 25.1874 28.8981C27.5901 28.7881 29.7184 28.2574 31.4718 26.5556C33.2253 24.8601 33.7741 22.8024 33.8946 20.4792C34.0351 18.085 34.0351 10.915 33.8946 8.52075V8.52075ZM30.6955 23.0483C30.1735 24.3166 29.1629 25.2937 27.8444 25.8049C25.8701 26.562 21.1852 26.3873 19.0033 26.3873C16.8215 26.3873 12.1299 26.5556 10.1623 25.8049C8.85053 25.3002 7.83993 24.323 7.31121 23.0483C6.52817 21.1393 6.70887 16.6096 6.70887 14.5C6.70887 12.3904 6.53486 7.85423 7.31121 5.95175C7.83324 4.68342 8.84384 3.70629 10.1623 3.19508C12.1366 2.43797 16.8215 2.61269 19.0033 2.61269C21.1852 2.61269 25.8767 2.44444 27.8444 3.19508C29.1562 3.69982 30.1668 4.67695 30.6955 5.95175C31.4785 7.8607 31.2978 12.3904 31.2978 14.5C31.2978 16.6096 31.4785 21.1458 30.6955 23.0483Z" fill="#FDFDFD"/>
</g>
<defs>
<filter id="filter0_d_54_68" x="0" y="0" width="38" height="37" filterUnits="userSpaceOnUse" color-interpolation-filters="sRGB">
<feFlood flood-opacity="0" result="BackgroundImageFix"/>
<feColorMatrix in="SourceAlpha" type="matrix" values="0 0 0 0 0 0 0 0 0 0 0 0 0 0 0 0 0 0 127 0" result="hardAlpha"/>
<feOffset dy="4"/>
<feGaussianBlur stdDeviation="2"/>
<feComposite in2="hardAlpha" operator="out"/>
<feColorMatrix type="matrix" values="0 0 0 0 0 0 0 0 0 0 0 0 0 0 0 0 0 0 0.25 0"/>
<feBlend mode="normal" in2="BackgroundImageFix" result="effect1_dropShadow_54_68"/>
<feBlend mode="normal" in="SourceGraphic" in2="effect1_dropShadow_54_68" result="shape"/>
</filter>
</defs>
</svg>
